Coordinates
version=1
nRows=6
nColumns=36
inDegrees=yes

Units are S.I. units (second, meters, Newtons, ...)
If the header above contains a line with 'inDegrees', this indicates whether rotational values are in degrees (yes) or radians (no).

endheader
time	pelvis_tilt	pelvis_list	pelvis_rotation	pelvis_tx	pelvis_ty	pelvis_tz	hip_flexion_r	hip_adduction_r	hip_rotation_r	knee_angle_r	knee_angle_r_beta	ankle_angle_r	subtalar_angle_r	mtp_angle_r	hip_flexion_l	hip_adduction_l	hip_rotation_l	knee_angle_l	knee_angle_l_beta	ankle_angle_l	subtalar_angle_l	mtp_angle_l	lumbar_extension	lumbar_bending	lumbar_rotation	arm_flex_r	arm_add_r	arm_rot_r	elbow_flex_r	pro_sup_r	arm_flex_l	arm_add_l	arm_rot_l	elbow_flex_l	pro_sup_l
      1.52000000	    -22.92099534	     -1.55444476	     -0.91900460	     -0.35070387	      0.81178294	     -0.54719128	     73.51152972	     -3.30957202	     -6.18128929	     75.19749727	      1.31244392	     23.28612441	    -16.25122093	     -7.49352625	     77.12629246	     -9.57167637	     -0.33340833	     75.72651919	      1.32167709	     21.16937861	      1.69837523	     -7.49352625	    -25.37537618	      5.60812128	      0.75849532	    -30.98750566	      0.78865006	    -34.49375546	     27.16585617	    107.84187940	    -34.59235085	      3.80049940	    -32.31550288	     29.74294470	    107.20117101
      1.53000000	    -22.66079406	     -1.39478160	     -1.13118631	     -0.35030252	      0.79969694	     -0.54543695	     74.48742414	     -2.92743168	     -5.91987422	     77.39530720	      1.35080294	     24.91744985	    -16.92382086	     -7.49375094	     78.10537797	     -9.76354313	     -0.02671580	     77.98218945	      1.36104596	     22.86524847	      1.96671955	     -7.49375094	    -27.96806774	      5.27350904	      1.62948659	    -24.45329684	     -0.83656947	    -27.71577857	     26.81765835	    108.62569494	    -27.23939301	      1.05176156	    -25.05435989	     29.27925746	    108.05864297
      1.54000000	    -22.10324457	     -1.07299651	     -0.89115193	     -0.34982293	      0.78972855	     -0.54614385	     75.17905661	     -3.40494667	     -5.55682569	     79.75091786	      1.39191610	     26.40049495	    -16.61087959	     -7.49454971	     78.50204244	     -9.06844572	      0.16192418	     79.75908893	      1.39205871	     24.02280307	      1.21180939	     -7.49454971	    -30.67458289	      5.08432187	      2.32485589	    -17.95162041	     -2.99322829	    -20.49585380	     27.34120182	    107.02678039	    -19.48805222	     -2.04079962	    -15.94246603	     29.38660638	    106.64902447
      1.55000000	    -21.51846793	     -1.07572998	     -0.42490831	     -0.34982158	      0.78104738	     -0.54867499	     75.79766597	     -4.22064633	     -5.43926959	     82.00545099	      1.43126512	     27.51105970	    -15.69443883	     -7.49475665	     78.97268129	     -7.95919937	      0.87399493	     81.42852780	      1.42119592	     24.46455090	     -0.18802414	     -7.49475665	    -33.15623298	      5.48214285	      3.06466239	    -11.64469692	     -5.65802277	    -15.05036953	     29.18601565	    107.74986156	    -11.52852526	     -4.75468917	     -7.53560390	     30.27064539	    107.55593646
      1.56000000	    -21.42029581	     -1.42967360	      0.12075623	     -0.35061546	      0.77254710	     -0.55196586	     76.82654670	     -5.03602273	     -5.64101843	     83.92597972	      1.46478467	     27.89488369	    -14.97492170	     -7.49501551	     80.08392417	     -6.73816718	      2.08065528	     83.04446000	      1.44939925	     24.70824385	     -1.21063960	     -7.49501551	    -34.61091586	      6.39275566	      3.61661168	     -5.18634378	     -8.68553412	    -11.30748999	     31.51137767	    108.53729638	     -3.51527977	     -6.93008372	     -0.82656800	     31.30638965	    107.67604239
      1.57000000	    -21.55417421	     -1.52775869	      0.35377303	     -0.35155777	      0.76478222	     -0.55425576	     78.01582981	     -5.56046302	     -5.61929980	     85.47822325	      1.49187643	     28.12324206	    -14.72672639	     -7.49515664	     81.23925738	     -5.89214868	      2.77764541	     84.45847656	      1.47407850	     24.82921990	     -2.07904746	     -7.49515664	    -35.41673890	      6.82738117	      3.87641450	      1.23673626	    -11.48079916	     -9.10084708	     34.99928119	    109.24552723	      3.82510933	     -8.63951858	      1.74355974	     34.23459783	    107.57926984
